# xmcd
#
# Track frame offsets: 
#        150
#        10447
#        23872
#        36045
#        49820
#        60090
#        71812
#        85225
#        99495
#        112405
#        126470
#        138445
#        149737
#        163362
#        175802
#        193570
#
# Disc length: 2833 seconds
#
# Revision: 2
# Processed by: cddbd v1.5PL3 Copyright (c) Steve Scherf et al.
# Submitted via: ExactAudioCopy v0.95a5
#
DISCID=f00b0f10
DTITLE=Big Walter Horton - Mouth Harp Maestro
DYEAR=1988
DGENRE=Blues
TTITLE0=Jumpin' Blues
TTITLE1=Black Gal
TTITLE2=Hard Hearted Woman
TTITLE3=Go 'Long Woman
TTITLE4=What's The Matter With You (Take 2)
TTITLE5=Cotton Patch Hot Foot
TTITLE6=Little Boy Blue (Take 2)
TTITLE7=Walter's Blues (I'm In Love With You - Take 1)
TTITLE8=Blues In The Morning
TTITLE9=Now Tell Me Baby
TTITLE10=Walter's Blues (I'm In Love With You - Take 2)
TTITLE11=What's The Matter With You (Take 1)
TTITLE12=Little Boy Blue (Take 1)
TTITLE13=Boogie Woogie Boogie
TTITLE14=Sufficient Clothes
TTITLE15=Miss Darline
EXTD=CDCH 252\n
EXTT0=
EXTT1=
EXTT2=
EXTT3=
EXTT4=
EXTT5=
EXTT6=
EXTT7=
EXTT8=
EXTT9=
EXTT10=
EXTT11=
EXTT12=
EXTT13=
EXTT14=
EXTT15=
PLAYORDER=
